<svg width="175" height="103" viewBox="0 0 175 103" fill="none" xmlns="http://www.w3.org/2000/svg">
<g filter="url(#filter0_d_1_233)">
<g clip-path="url(#clip0_1_233)">
<rect width="152.78" height="77.3254" rx="3.74155" transform="matrix(1 0 3.50292e-05 1 10.9093 10.5312)" fill="white"/>
<path d="M23.3305 24.5041L23.3305 24.9368H21.206L21.206 24.5041H23.3305ZM21.3133 20.9246L21.3135 24.9368H20.7816L20.7815 20.9246H21.3133ZM23.0494 22.6496L23.0494 23.0823H21.2059L21.2059 22.6496H23.0494ZM23.3028 20.9246L23.3029 21.36H21.2059L21.2058 20.9246H23.3028ZM25.0641 24.573C25.1854 24.573 25.2974 24.5482 25.4003 24.4986C25.5032 24.449 25.5877 24.3811 25.6538 24.2947C25.7199 24.2065 25.7576 24.1064 25.7668 23.9944H26.2518C26.2426 24.1707 26.1829 24.3351 26.0727 24.4876C25.9643 24.6382 25.8219 24.7604 25.6456 24.8541C25.4692 24.946 25.2754 24.9919 25.0641 24.9919C24.84 24.9919 24.6444 24.9524 24.4772 24.8734C24.3119 24.7944 24.1741 24.686 24.0638 24.5482C23.9555 24.4104 23.8737 24.2525 23.8186 24.0743C23.7653 23.8942 23.7387 23.7041 23.7387 23.5039L23.7386 23.3881C23.7386 23.1879 23.7653 22.9987 23.8185 22.8205C23.8736 22.6404 23.9554 22.4815 24.0638 22.3438C24.174 22.206 24.3118 22.0976 24.4771 22.0186C24.6443 21.9396 24.8399 21.9001 25.064 21.9001C25.2973 21.9001 25.5013 21.9479 25.6758 22.0434C25.8503 22.1371 25.9872 22.2657 26.0864 22.4292C26.1874 22.5908 26.2425 22.7745 26.2517 22.9803H25.7668C25.7576 22.8572 25.7227 22.7461 25.662 22.6469C25.6032 22.5477 25.5224 22.4687 25.4195 22.4099C25.3185 22.3493 25.2 22.319 25.0641 22.319C24.9079 22.319 24.7766 22.3502 24.67 22.4126C24.5653 22.4733 24.4817 22.5559 24.4193 22.6606C24.3586 22.7635 24.3145 22.8783 24.287 23.0051C24.2613 23.13 24.2484 23.2577 24.2484 23.3881L24.2484 23.5039C24.2484 23.6343 24.2613 23.7629 24.287 23.8896C24.3128 24.0164 24.3559 24.1312 24.4166 24.2341C24.479 24.337 24.5626 24.4196 24.6673 24.4821C24.7739 24.5427 24.9061 24.573 25.0641 24.573ZM26.704 23.4791L26.704 23.4157C26.704 23.2007 26.7352 23.0014 26.7977 22.8177C26.8601 22.6322 26.9501 22.4714 27.0677 22.3355C27.1853 22.1977 27.3276 22.0912 27.4948 22.0158C27.662 21.9387 27.8494 21.9001 28.0569 21.9001C28.2664 21.9001 28.4547 21.9387 28.6218 22.0158C28.7909 22.0912 28.9341 22.1977 29.0517 22.3355C29.1711 22.4714 29.2621 22.6322 29.3245 22.8177C29.387 23.0014 29.4183 23.2007 29.4183 23.4157L29.4183 23.4791C29.4183 23.694 29.387 23.8933 29.3246 24.077C29.2621 24.2607 29.1712 24.4215 29.0518 24.5593C28.9342 24.6952 28.7919 24.8017 28.6247 24.8789C28.4594 24.9542 28.272 24.9919 28.0626 24.9919C27.8531 24.9919 27.6648 24.9542 27.4977 24.8789C27.3305 24.8017 27.1872 24.6952 27.0678 24.5593C26.9502 24.4215 26.8602 24.2607 26.7977 24.077C26.7352 23.8933 26.704 23.694 26.704 23.4791ZM27.2138 23.4157L27.2138 23.4791C27.2138 23.6279 27.2312 23.7684 27.2662 23.9007C27.3011 24.0311 27.3534 24.1468 27.4232 24.2479C27.4949 24.3489 27.584 24.4288 27.6905 24.4876C27.7971 24.5446 27.9211 24.573 28.0625 24.573C28.2022 24.573 28.3243 24.5446 28.429 24.4876C28.5356 24.4288 28.6238 24.3489 28.6936 24.2479C28.7634 24.1468 28.8157 24.0311 28.8506 23.9007C28.8874 23.7684 28.9057 23.6279 28.9057 23.4791L28.9057 23.4157C28.9057 23.2687 28.8873 23.13 28.8506 22.9996C28.8157 22.8673 28.7624 22.7507 28.6908 22.6496C28.6209 22.5467 28.5328 22.4659 28.4262 22.4071C28.3215 22.3483 28.1984 22.319 28.057 22.319C27.9173 22.319 27.7943 22.3483 27.6877 22.4071C27.583 22.4659 27.4948 22.5467 27.4232 22.6496C27.3534 22.7507 27.301 22.8673 27.2661 22.9996C27.2312 23.13 27.2138 23.2687 27.2138 23.4157ZM30.5787 22.5477L30.5787 24.9368H30.0662L30.0661 21.9552H30.5511L30.5787 22.5477ZM30.474 23.333L30.237 23.3247C30.2388 23.1208 30.2655 22.9325 30.3169 22.7598C30.3683 22.5853 30.4446 22.4338 30.5456 22.3052C30.6466 22.1766 30.7725 22.0774 30.9231 22.0076C31.0737 21.9359 31.2482 21.9001 31.4467 21.9001C31.5863 21.9001 31.7149 21.9203 31.8324 21.9607C31.95 21.9993 32.052 22.0608 32.1383 22.1454C32.2247 22.2299 32.2917 22.3382 32.3395 22.4705C32.3873 22.6028 32.4111 22.7626 32.4111 22.95L32.4112 24.9368H31.9014L31.9014 22.9748C31.9014 22.8186 31.8747 22.6937 31.8214 22.6C31.77 22.5063 31.6965 22.4384 31.601 22.3961C31.5055 22.352 31.3934 22.33 31.2648 22.33C31.1142 22.33 30.9883 22.3566 30.8873 22.4099C30.7862 22.4632 30.7054 22.5366 30.6448 22.6303C30.5842 22.724 30.5401 22.8315 30.5125 22.9527C30.4868 23.0721 30.474 23.1989 30.474 23.333ZM32.4056 23.0519L32.0639 23.1567C32.0658 22.9932 32.0924 22.8361 32.1438 22.6854C32.1971 22.5348 32.2733 22.4007 32.3725 22.2831C32.4736 22.1656 32.5976 22.0728 32.7445 22.0048C32.8915 21.935 33.0596 21.9001 33.2488 21.9001C33.4086 21.9001 33.5501 21.9212 33.6732 21.9635C33.7981 22.0057 33.9028 22.071 33.9873 22.1591C34.0737 22.2455 34.1389 22.3566 34.183 22.4926C34.2271 22.6285 34.2491 22.7902 34.2491 22.9775L34.2492 24.9368H33.7367L33.7366 22.972C33.7366 22.8049 33.7099 22.6753 33.6567 22.5835C33.6052 22.4898 33.5317 22.4246 33.4362 22.3878C33.3425 22.3493 33.2305 22.33 33.1 22.33C32.988 22.33 32.8888 22.3493 32.8024 22.3878C32.7161 22.4264 32.6435 22.4797 32.5847 22.5477C32.526 22.6138 32.4809 22.69 32.4497 22.7764C32.4203 22.8627 32.4056 22.9546 32.4056 23.0519ZM35.5418 22.5477L35.5419 24.9368H35.0294L35.0293 21.9552H35.5142L35.5418 22.5477ZM35.4371 23.333L35.2002 23.3247C35.202 23.1208 35.2286 22.9325 35.28 22.7598C35.3315 22.5853 35.4077 22.4338 35.5087 22.3052C35.6098 22.1766 35.7356 22.0774 35.8862 22.0076C36.0369 21.9359 36.2114 21.9001 36.4098 21.9001C36.5494 21.9001 36.678 21.9203 36.7956 21.9607C36.9132 21.9993 37.0151 22.0608 37.1015 22.1454C37.1878 22.2299 37.2549 22.3382 37.3026 22.4705C37.3504 22.6028 37.3743 22.7626 37.3743 22.95L37.3744 24.9368H36.8646L36.8645 22.9748C36.8645 22.8186 36.8379 22.6937 36.7846 22.6C36.7332 22.5063 36.6597 22.4384 36.5641 22.3961C36.4686 22.352 36.3565 22.33 36.228 22.33C36.0773 22.33 35.9515 22.3566 35.8504 22.4099C35.7494 22.4632 35.6686 22.5366 35.608 22.6303C35.5473 22.724 35.5032 22.8315 35.4757 22.9527C35.45 23.0721 35.4371 23.1989 35.4371 23.333ZM37.3688 23.0519L37.0271 23.1567C37.0289 22.9932 37.0556 22.8361 37.107 22.6854C37.1603 22.5348 37.2365 22.4007 37.3357 22.2831C37.4367 22.1656 37.5607 22.0728 37.7077 22.0048C37.8547 21.935 38.0227 21.9001 38.212 21.9001C38.3718 21.9001 38.5132 21.9212 38.6363 21.9635C38.7612 22.0057 38.866 22.071 38.9505 22.1591C39.0368 22.2455 39.102 22.3566 39.1461 22.4926C39.1902 22.6285 39.2123 22.7902 39.2123 22.9775L39.2124 24.9368H38.6998L38.6997 22.972C38.6997 22.8049 38.6731 22.6753 38.6198 22.5835C38.5684 22.4898 38.4949 22.4246 38.3994 22.3878C38.3057 22.3493 38.1936 22.33 38.0632 22.33C37.9511 22.33 37.8519 22.3493 37.7656 22.3878C37.6792 22.4264 37.6067 22.4797 37.5479 22.5477C37.4891 22.6138 37.4441 22.69 37.4129 22.7764C37.3835 22.8627 37.3688 22.9546 37.3688 23.0519ZM41.2353 24.9919C41.0277 24.9919 40.8394 24.957 40.6704 24.8872C40.5032 24.8155 40.359 24.7154 40.2378 24.5868C40.1183 24.4582 40.0265 24.3057 39.9622 24.1294C39.8979 23.953 39.8657 23.7601 39.8657 23.5507L39.8657 23.435C39.8657 23.1925 39.9015 22.9766 39.9732 22.7874C40.0448 22.5964 40.1421 22.4347 40.2652 22.3024C40.3883 22.1702 40.5279 22.07 40.6841 22.0021C40.8402 21.9341 41.0019 21.9001 41.169 21.9001C41.3821 21.9001 41.5659 21.9368 41.7202 22.0103C41.8763 22.0838 42.004 22.1867 42.1032 22.319C42.2024 22.4494 42.2759 22.6037 42.3237 22.7819C42.3714 22.9583 42.3953 23.1511 42.3953 23.3606L42.3953 23.5893H40.1688L40.1688 23.1732H41.8855L41.8855 23.1346C41.8782 23.0023 41.8506 22.8737 41.8029 22.7488C41.7569 22.6239 41.6834 22.521 41.5824 22.4402C41.4814 22.3594 41.3436 22.319 41.1691 22.319C41.0533 22.319 40.9468 22.3438 40.8494 22.3934C40.7521 22.4411 40.6685 22.5128 40.5987 22.6083C40.5289 22.7038 40.4747 22.8205 40.4361 22.9583C40.3975 23.096 40.3782 23.2549 40.3782 23.435L40.3782 23.5507C40.3783 23.6922 40.3975 23.8253 40.4361 23.9503C40.4766 24.0733 40.5344 24.1817 40.6097 24.2754C40.6869 24.3691 40.7797 24.4426 40.8881 24.4959C40.9983 24.5491 41.1232 24.5758 41.2628 24.5758C41.4429 24.5758 41.5953 24.539 41.7203 24.4656C41.8452 24.3921 41.9545 24.2938 42.0482 24.1707L42.3568 24.416C42.2925 24.5133 42.2108 24.6061 42.1116 24.6943C42.0124 24.7825 41.8902 24.8541 41.7451 24.9092C41.6018 24.9643 41.4319 24.9919 41.2353 24.9919ZM43.5144 22.4237L43.5145 24.9368H43.0047L43.0046 21.9552H43.5006L43.5144 22.4237ZM44.4458 21.9387L44.443 22.4126C44.4008 22.4035 44.3604 22.3979 44.3218 22.3961C44.2851 22.3924 44.2428 22.3906 44.195 22.3906C44.0775 22.3906 43.9737 22.409 43.8837 22.4457C43.7936 22.4825 43.7174 22.5339 43.6549 22.6C43.5925 22.6662 43.5429 22.7452 43.5062 22.837C43.4713 22.927 43.4483 23.0262 43.4373 23.1346L43.294 23.2173C43.294 23.0372 43.3114 22.8682 43.3463 22.7102C43.3831 22.5523 43.4391 22.4126 43.5144 22.2914C43.5897 22.1683 43.6852 22.0728 43.801 22.0048C43.9185 21.935 44.0582 21.9001 44.2198 21.9001C44.2566 21.9001 44.2988 21.9047 44.3466 21.9139C44.3943 21.9212 44.4274 21.9295 44.4458 21.9387ZM46.0692 24.573C46.1905 24.573 46.3026 24.5482 46.4054 24.4986C46.5083 24.449 46.5928 24.3811 46.6589 24.2947C46.7251 24.2065 46.7627 24.1064 46.7719 23.9944H47.2569C47.2477 24.1707 47.188 24.3351 47.0778 24.4876C46.9694 24.6382 46.827 24.7604 46.6507 24.8541C46.4743 24.946 46.2805 24.9919 46.0693 24.9919C45.8451 24.9919 45.6495 24.9524 45.4823 24.8734C45.317 24.7944 45.1792 24.686 45.069 24.5482C44.9606 24.4104 44.8788 24.2525 44.8237 24.0743C44.7704 23.8942 44.7438 23.7041 44.7438 23.5039L44.7438 23.3881C44.7438 23.1879 44.7704 22.9987 44.8237 22.8205C44.8788 22.6404 44.9605 22.4815 45.0689 22.3438C45.1791 22.206 45.3169 22.0976 45.4822 22.0186C45.6494 21.9396 45.845 21.9001 46.0692 21.9001C46.3025 21.9001 46.5064 21.9479 46.6809 22.0434C46.8554 22.1371 46.9923 22.2657 47.0915 22.4292C47.1925 22.5908 47.2477 22.7745 47.2569 22.9803H46.7719C46.7627 22.8572 46.7278 22.7461 46.6671 22.6469C46.6084 22.5477 46.5275 22.4687 46.4246 22.4099C46.3236 22.3493 46.2051 22.319 46.0692 22.319C45.913 22.319 45.7817 22.3502 45.6751 22.4126C45.5704 22.4733 45.4868 22.5559 45.4244 22.6606C45.3638 22.7635 45.3197 22.8783 45.2921 23.0051C45.2664 23.13 45.2535 23.2577 45.2535 23.3881L45.2536 23.5039C45.2536 23.6343 45.2664 23.7629 45.2921 23.8896C45.3179 24.0164 45.361 24.1312 45.4217 24.2341C45.4841 24.337 45.5677 24.4196 45.6724 24.4821C45.779 24.5427 45.9113 24.573 46.0692 24.573ZM49.0815 24.9919C48.8739 24.9919 48.6856 24.957 48.5166 24.8872C48.3494 24.8155 48.2052 24.7154 48.0839 24.5868C47.9645 24.4582 47.8726 24.3057 47.8083 24.1294C47.744 23.953 47.7119 23.7601 47.7119 23.5507L47.7119 23.435C47.7119 23.1925 47.7477 22.9766 47.8193 22.7874C47.891 22.5964 47.9883 22.4347 48.1114 22.3024C48.2345 22.1702 48.3741 22.07 48.5302 22.0021C48.6864 21.9341 48.848 21.9001 49.0152 21.9001C49.2283 21.9001 49.412 21.9368 49.5663 22.0103C49.7225 22.0838 49.8502 22.1867 49.9494 22.319C50.0486 22.4494 50.1221 22.6037 50.1698 22.7819C50.2176 22.9583 50.2415 23.1511 50.2415 23.3606L50.2415 23.5893H48.015L48.015 23.1732H49.7317L49.7317 23.1346C49.7244 23.0023 49.6968 22.8737 49.649 22.7488C49.6031 22.6239 49.5296 22.521 49.4286 22.4402C49.3275 22.3594 49.1897 22.319 49.0152 22.319C48.8995 22.319 48.7929 22.3438 48.6956 22.3934C48.5982 22.4411 48.5146 22.5128 48.4448 22.6083C48.375 22.7038 48.3208 22.8205 48.2823 22.9583C48.2437 23.096 48.2244 23.2549 48.2244 23.435L48.2244 23.5507C48.2244 23.6922 48.2437 23.8253 48.2823 23.9503C48.3227 24.0733 48.3806 24.1817 48.4559 24.2754C48.5331 24.3691 48.6258 24.4426 48.7342 24.4959C48.8445 24.5491 48.9694 24.5758 49.109 24.5758C49.289 24.5758 49.4415 24.539 49.5664 24.4656C49.6913 24.3921 49.8006 24.2938 49.8943 24.1707L50.203 24.416C50.1387 24.5133 50.0569 24.6061 49.9577 24.6943C49.8585 24.7825 49.7364 24.8541 49.5912 24.9092C49.4479 24.9643 49.278 24.9919 49.0815 24.9919ZM53.458 24.573C53.5792 24.573 53.6913 24.5482 53.7942 24.4986C53.897 24.449 53.9815 24.3811 54.0477 24.2947C54.1138 24.2065 54.1515 24.1064 54.1606 23.9944H54.6456C54.6364 24.1707 54.5767 24.3351 54.4665 24.4876C54.3581 24.6382 54.2158 24.7604 54.0394 24.8541C53.8631 24.946 53.6693 24.9919 53.458 24.9919C53.2339 24.9919 53.0382 24.9524 52.8711 24.8734C52.7057 24.7944 52.5679 24.686 52.4577 24.5482C52.3493 24.4104 52.2676 24.2525 52.2124 24.0743C52.1592 23.8942 52.1325 23.7041 52.1325 23.5039L52.1325 23.3881C52.1325 23.1879 52.1591 22.9987 52.2124 22.8205C52.2675 22.6404 52.3492 22.4815 52.4576 22.3438C52.5678 22.206 52.7056 22.0976 52.871 22.0186C53.0381 21.9396 53.2338 21.9001 53.4579 21.9001C53.6912 21.9001 53.8951 21.9479 54.0696 22.0434C54.2442 22.1371 54.381 22.2657 54.4802 22.4292C54.5813 22.5908 54.6364 22.7745 54.6456 22.9803H54.1606C54.1514 22.8572 54.1165 22.7461 54.0559 22.6469C53.9971 22.5477 53.9163 22.4687 53.8134 22.4099C53.7123 22.3493 53.5938 22.319 53.4579 22.319C53.3018 22.319 53.1704 22.3502 53.0639 22.4126C52.9591 22.4733 52.8756 22.5559 52.8131 22.6606C52.7525 22.7635 52.7084 22.8783 52.6809 23.0051C52.6551 23.13 52.6423 23.2577 52.6423 23.3881L52.6423 23.5039C52.6423 23.6343 52.6552 23.7629 52.6809 23.8896C52.7066 24.0164 52.7498 24.1312 52.8104 24.2341C52.8729 24.337 52.9565 24.4196 53.0612 24.4821C53.1677 24.5427 53.3 24.573 53.458 24.573ZM55.0979 23.4791L55.0979 23.4157C55.0978 23.2007 55.1291 23.0014 55.1915 22.8177C55.254 22.6322 55.344 22.4714 55.4616 22.3355C55.5791 22.1977 55.7215 22.0912 55.8887 22.0158C56.0558 21.9387 56.2432 21.9001 56.4508 21.9001C56.6602 21.9001 56.8485 21.9387 57.0157 22.0158C57.1847 22.0912 57.328 22.1977 57.4456 22.3355C57.565 22.4714 57.6559 22.6322 57.7184 22.8177C57.7809 23.0014 57.8121 23.2007 57.8121 23.4157L57.8121 23.4791C57.8121 23.694 57.7809 23.8933 57.7184 24.077C57.656 24.2607 57.5651 24.4215 57.4457 24.5593C57.3281 24.6952 57.1857 24.8017 57.0186 24.8789C56.8532 24.9542 56.6658 24.9919 56.4564 24.9919C56.247 24.9919 56.0587 24.9542 55.8915 24.8789C55.7243 24.8017 55.581 24.6952 55.4616 24.5593C55.3441 24.4215 55.254 24.2607 55.1916 24.077C55.1291 23.8933 55.0979 23.694 55.0979 23.4791ZM55.6076 23.4157L55.6076 23.4791C55.6076 23.6279 55.6251 23.7684 55.66 23.9007C55.6949 24.0311 55.7473 24.1468 55.8171 24.2479C55.8887 24.3489 55.9778 24.4288 56.0844 24.4876C56.1909 24.5446 56.3149 24.573 56.4564 24.573C56.596 24.573 56.7182 24.5446 56.8229 24.4876C56.9294 24.4288 57.0176 24.3489 57.0874 24.2479C57.1572 24.1468 57.2096 24.0311 57.2445 23.9007C57.2812 23.7684 57.2996 23.6279 57.2996 23.4791L57.2996 23.4157C57.2996 23.2687 57.2812 23.13 57.2444 22.9996C57.2095 22.8673 57.1563 22.7507 57.0846 22.6496C57.0148 22.5467 56.9266 22.4659 56.8201 22.4071C56.7153 22.3483 56.5923 22.319 56.4508 22.319C56.3112 22.319 56.1881 22.3483 56.0816 22.4071C55.9769 22.4659 55.8887 22.5467 55.817 22.6496C55.7472 22.7507 55.6949 22.8673 55.66 22.9996C55.6251 23.13 55.6076 23.2687 55.6076 23.4157ZM58.9753 22.5918L58.9754 24.9368H58.4656L58.4655 21.9552H58.9477L58.9753 22.5918ZM58.8541 23.333L58.6419 23.3247C58.6437 23.1208 58.674 22.9325 58.7328 22.7598C58.7916 22.5853 58.8742 22.4338 58.9808 22.3052C59.0873 22.1766 59.2141 22.0774 59.361 22.0076C59.5098 21.9359 59.6743 21.9001 59.8543 21.9001C60.0012 21.9001 60.1335 21.9203 60.2511 21.9607C60.3687 21.9993 60.4688 22.0618 60.5515 22.1481C60.636 22.2344 60.7003 22.3465 60.7444 22.4843C60.7885 22.6202 60.8105 22.7865 60.8105 22.9831L60.8106 24.9368H60.298L60.298 22.9775C60.298 22.8214 60.275 22.6965 60.2291 22.6028C60.1831 22.5073 60.1161 22.4384 60.0279 22.3961C59.9397 22.352 59.8313 22.33 59.7027 22.33C59.576 22.33 59.4603 22.3566 59.3555 22.4099C59.2527 22.4632 59.1636 22.5366 59.0883 22.6303C59.0148 22.724 58.9569 22.8315 58.9147 22.9527C58.8743 23.0721 58.8541 23.1989 58.8541 23.333ZM62.5056 24.4766L63.3212 21.9552H63.842L62.7701 24.9368H62.4284L62.5056 24.4766ZM61.8249 21.9552L62.6654 24.4904L62.7233 24.9368H62.3816L61.3013 21.9552H61.8249ZM65.5454 24.9919C65.3378 24.9919 65.1495 24.957 64.9805 24.8872C64.8133 24.8155 64.6691 24.7154 64.5478 24.5868C64.4284 24.4582 64.3365 24.3057 64.2722 24.1294C64.2079 23.953 64.1758 23.7601 64.1758 23.5507L64.1758 23.435C64.1758 23.1925 64.2116 22.9766 64.2832 22.7874C64.3549 22.5964 64.4522 22.4347 64.5753 22.3024C64.6984 22.1702 64.838 22.07 64.9941 22.0021C65.1503 21.9341 65.3119 21.9001 65.4791 21.9001C65.6922 21.9001 65.8759 21.9368 66.0302 22.0103C66.1864 22.0838 66.3141 22.1867 66.4133 22.319C66.5125 22.4494 66.586 22.6037 66.6337 22.7819C66.6815 22.9583 66.7054 23.1511 66.7054 23.3606L66.7054 23.5893H64.4789L64.4789 23.1732H66.1956L66.1956 23.1346C66.1883 23.0023 66.1607 22.8737 66.1129 22.7488C66.067 22.6239 65.9935 22.521 65.8925 22.4402C65.7914 22.3594 65.6536 22.319 65.4791 22.319C65.3634 22.319 65.2568 22.3438 65.1595 22.3934C65.0621 22.4411 64.9785 22.5128 64.9087 22.6083C64.8389 22.7038 64.7847 22.8205 64.7462 22.9583C64.7076 23.096 64.6883 23.2549 64.6883 23.435L64.6883 23.5507C64.6883 23.6922 64.7076 23.8253 64.7462 23.9503C64.7866 24.0733 64.8445 24.1817 64.9198 24.2754C64.997 24.3691 65.0897 24.4426 65.1981 24.4959C65.3084 24.5491 65.4333 24.5758 65.5729 24.5758C65.7529 24.5758 65.9054 24.539 66.0303 24.4656C66.1552 24.3921 66.2645 24.2938 66.3582 24.1707L66.6669 24.416C66.6026 24.5133 66.5208 24.6061 66.4216 24.6943C66.3224 24.7825 66.2003 24.8541 66.0551 24.9092C65.9118 24.9643 65.7419 24.9919 65.5454 24.9919ZM67.8245 22.4237L67.8246 24.9368H67.3148L67.3147 21.9552H67.8107L67.8245 22.4237ZM68.7558 21.9387L68.7531 22.4126C68.7109 22.4035 68.6704 22.3979 68.6319 22.3961C68.5951 22.3924 68.5529 22.3906 68.5051 22.3906C68.3875 22.3906 68.2837 22.409 68.1937 22.4457C68.1037 22.4825 68.0275 22.5339 67.965 22.6C67.9026 22.6662 67.853 22.7452 67.8162 22.837C67.7813 22.927 67.7584 23.0262 67.7473 23.1346L67.6041 23.2173C67.604 23.0372 67.6215 22.8682 67.6564 22.7102C67.6931 22.5523 67.7492 22.4126 67.8245 22.2914C67.8998 22.1683 67.9953 22.0728 68.111 22.0048C68.2286 21.935 68.3682 21.9001 68.5299 21.9001C68.5666 21.9001 68.6089 21.9047 68.6566 21.9139C68.7044 21.9212 68.7375 21.9295 68.7558 21.9387ZM70.9773 24.1459C70.9773 24.0724 70.9607 24.0045 70.9277 23.942C70.8964 23.8777 70.8312 23.8198 70.732 23.7684C70.6346 23.7151 70.4877 23.6692 70.2911 23.6306C70.1258 23.5957 69.976 23.5544 69.8419 23.5066C69.7097 23.4589 69.5967 23.401 69.503 23.333C69.4111 23.265 69.3404 23.1851 69.2908 23.0933C69.2412 23.0014 69.2164 22.894 69.2164 22.7709C69.2164 22.6533 69.2421 22.5422 69.2935 22.4374C69.3468 22.3327 69.4212 22.24 69.5167 22.1591C69.6141 22.0783 69.7307 22.0149 69.8667 21.969C70.0026 21.9231 70.1542 21.9001 70.3214 21.9001C70.5602 21.9001 70.7641 21.9424 70.9331 22.0269C71.1021 22.1114 71.2316 22.2243 71.3216 22.3658C71.4117 22.5054 71.4567 22.6606 71.4567 22.8315H70.9469C70.9469 22.7488 70.9221 22.6689 70.8725 22.5918C70.8247 22.5128 70.754 22.4475 70.6603 22.3961C70.5685 22.3447 70.4555 22.319 70.3214 22.319C70.1799 22.319 70.0651 22.341 69.9769 22.3851C69.8906 22.4273 69.8272 22.4815 69.7868 22.5477C69.7482 22.6138 69.7289 22.6836 69.7289 22.7571C69.7289 22.8122 69.7381 22.8618 69.7565 22.9059C69.7767 22.9481 69.8116 22.9876 69.8612 23.0244C69.9108 23.0593 69.9806 23.0924 70.0706 23.1236C70.1607 23.1548 70.2755 23.186 70.4151 23.2173C70.6594 23.2724 70.8606 23.3385 71.0186 23.4157C71.1766 23.4928 71.2941 23.5874 71.3713 23.6995C71.4485 23.8116 71.487 23.9475 71.487 24.1073C71.487 24.2378 71.4595 24.3572 71.4044 24.4656C71.3511 24.5739 71.273 24.6676 71.1702 24.7466C71.0691 24.8238 70.9479 24.8844 70.8064 24.9285C70.6668 24.9708 70.5098 24.9919 70.3352 24.9919C70.0725 24.9919 69.8503 24.945 69.6684 24.8513C69.4865 24.7577 69.3487 24.6364 69.255 24.4876C69.1613 24.3388 69.1145 24.1817 69.1145 24.0164H69.627C69.6344 24.156 69.6748 24.2672 69.7483 24.3498C69.8218 24.4307 69.9118 24.4885 70.0183 24.5234C70.1249 24.5565 70.2305 24.573 70.3352 24.573C70.4748 24.573 70.5915 24.5547 70.6852 24.5179C70.7807 24.4812 70.8533 24.4307 70.9029 24.3664C70.9525 24.3021 70.9773 24.2286 70.9773 24.1459ZM72.7246 21.9552L72.7247 24.9368H72.2121L72.212 21.9552H72.7246ZM72.1734 21.1644C72.1734 21.0817 72.1982 21.0119 72.2478 20.9549C72.2992 20.898 72.3746 20.8695 72.4738 20.8695C72.5711 20.8695 72.6455 20.898 72.697 20.9549C72.7502 21.0119 72.7769 21.0817 72.7769 21.1644C72.7769 21.2434 72.7503 21.3113 72.697 21.3683C72.6455 21.4234 72.5711 21.4509 72.4738 21.4509C72.3746 21.4509 72.2993 21.4234 72.2478 21.3683C72.1982 21.3113 72.1734 21.2434 72.1734 21.1644ZM73.4221 23.4791L73.4221 23.4157C73.4221 23.2007 73.4533 23.0014 73.5158 22.8177C73.5782 22.6322 73.6682 22.4714 73.7858 22.3355C73.9034 22.1977 74.0457 22.0912 74.2129 22.0158C74.3801 21.9387 74.5675 21.9001 74.775 21.9001C74.9845 21.9001 75.1728 21.9387 75.3399 22.0158C75.509 22.0912 75.6523 22.1977 75.7698 22.3355C75.8892 22.4714 75.9802 22.6322 76.0427 22.8177C76.1051 23.0014 76.1364 23.2007 76.1364 23.4157L76.1364 23.4791C76.1364 23.694 76.1052 23.8933 76.0427 24.077C75.9802 24.2607 75.8893 24.4215 75.7699 24.5593C75.6523 24.6952 75.51 24.8017 75.3428 24.8789C75.1775 24.9542 74.9901 24.9919 74.7807 24.9919C74.5712 24.9919 74.3829 24.9542 74.2158 24.8789C74.0486 24.8017 73.9053 24.6952 73.7859 24.5593C73.6683 24.4215 73.5783 24.2607 73.5158 24.077C73.4534 23.8933 73.4221 23.694 73.4221 23.4791ZM73.9319 23.4157L73.9319 23.4791C73.9319 23.6279 73.9494 23.7684 73.9843 23.9007C74.0192 24.0311 74.0715 24.1468 74.1413 24.2479C74.213 24.3489 74.3021 24.4288 74.4086 24.4876C74.5152 24.5446 74.6392 24.573 74.7807 24.573C74.9203 24.573 75.0424 24.5446 75.1471 24.4876C75.2537 24.4288 75.3419 24.3489 75.4117 24.2479C75.4815 24.1468 75.5338 24.0311 75.5687 23.9007C75.6055 23.7684 75.6238 23.6279 75.6238 23.4791L75.6238 23.4157C75.6238 23.2687 75.6054 23.13 75.5687 22.9996C75.5338 22.8673 75.4805 22.7507 75.4089 22.6496C75.339 22.5467 75.2509 22.4659 75.1443 22.4071C75.0396 22.3483 74.9165 22.319 74.7751 22.319C74.6354 22.319 74.5124 22.3483 74.4058 22.4071C74.3011 22.4659 74.2129 22.5467 74.1413 22.6496C74.0715 22.7507 74.0191 22.8673 73.9842 22.9996C73.9493 23.13 73.9319 23.2687 73.9319 23.4157ZM77.2995 22.5918L77.2996 24.9368H76.7898L76.7897 21.9552H77.2719L77.2995 22.5918ZM77.1783 23.333L76.9661 23.3247C76.968 23.1208 76.9983 22.9325 77.057 22.7598C77.1158 22.5853 77.1985 22.4338 77.305 22.3052C77.4116 22.1766 77.5383 22.0774 77.6853 22.0076C77.8341 21.9359 77.9985 21.9001 78.1785 21.9001C78.3255 21.9001 78.4578 21.9203 78.5753 21.9607C78.6929 21.9993 78.793 22.0618 78.8757 22.1481C78.9602 22.2344 79.0245 22.3465 79.0686 22.4843C79.1127 22.6202 79.1348 22.7865 79.1348 22.9831L79.1348 24.9368H78.6223L78.6222 22.9775C78.6222 22.8214 78.5993 22.6965 78.5533 22.6028C78.5074 22.5073 78.4403 22.4384 78.3522 22.3961C78.264 22.352 78.1556 22.33 78.027 22.33C77.9002 22.33 77.7845 22.3566 77.6798 22.4099C77.5769 22.4632 77.4878 22.5366 77.4125 22.6303C77.339 22.724 77.2812 22.8315 77.2389 22.9527C77.1985 23.0721 77.1783 23.1989 77.1783 23.333ZM81.8469 22.4237L81.847 24.9368H81.3372L81.3371 21.9552H81.8331L81.8469 22.4237ZM82.7783 21.9387L82.7755 22.4126C82.7333 22.4035 82.6929 22.3979 82.6543 22.3961C82.6176 22.3924 82.5753 22.3906 82.5275 22.3906C82.41 22.3906 82.3062 22.409 82.2162 22.4457C82.1261 22.4825 82.0499 22.5339 81.9875 22.6C81.925 22.6662 81.8754 22.7452 81.8387 22.837C81.8038 22.927 81.7808 23.0262 81.7698 23.1346L81.6265 23.2173C81.6265 23.0372 81.6439 22.8682 81.6788 22.7102C81.7156 22.5523 81.7716 22.4126 81.8469 22.2914C81.9222 22.1683 82.0177 22.0728 82.1335 22.0048C82.251 21.935 82.3907 21.9001 82.5523 21.9001C82.5891 21.9001 82.6313 21.9047 82.6791 21.9139C82.7268 21.9212 82.7599 21.9295 82.7783 21.9387ZM84.9115 24.427L84.9115 22.8921C84.9115 22.7745 84.8876 22.6726 84.8398 22.5862C84.7939 22.4981 84.7241 22.4301 84.6304 22.3823C84.5367 22.3346 84.421 22.3107 84.2832 22.3107C84.1546 22.3107 84.0416 22.3327 83.9442 22.3768C83.8487 22.4209 83.7734 22.4788 83.7183 22.5504C83.665 22.6221 83.6384 22.6992 83.6384 22.7819H83.1286C83.1286 22.6753 83.1562 22.5697 83.2113 22.465C83.2664 22.3603 83.3454 22.2657 83.4482 22.1812C83.5529 22.0948 83.6779 22.0269 83.823 21.9773C83.97 21.9258 84.1335 21.9001 84.3135 21.9001C84.5303 21.9001 84.7213 21.9368 84.8866 22.0103C85.0538 22.0838 85.1843 22.195 85.278 22.3438C85.3735 22.4907 85.4213 22.6753 85.4213 22.8976L85.4213 24.2864C85.4213 24.3856 85.4296 24.4913 85.4461 24.6033C85.4645 24.7154 85.4911 24.8118 85.526 24.8927L85.5261 24.9368H84.9942C84.9685 24.878 84.9483 24.7999 84.9336 24.7025C84.9189 24.6033 84.9115 24.5115 84.9115 24.427ZM84.9997 23.1291L85.0052 23.4873H84.4899C84.3448 23.4873 84.2153 23.4993 84.1014 23.5231C83.9875 23.5452 83.8919 23.5792 83.8148 23.6251C83.7376 23.671 83.6788 23.7289 83.6384 23.7987C83.598 23.8667 83.5778 23.9466 83.5778 24.0384C83.5778 24.1321 83.5989 24.2176 83.6412 24.2947C83.6835 24.3719 83.7468 24.4334 83.8313 24.4793C83.9177 24.5234 84.0233 24.5455 84.1482 24.5455C84.3044 24.5455 84.4422 24.5124 84.5616 24.4463C84.681 24.3801 84.7756 24.2993 84.8454 24.2038C84.917 24.1083 84.9556 24.0155 84.9611 23.9255L85.1788 24.1707C85.166 24.2479 85.1311 24.3333 85.0741 24.427C85.0172 24.5207 84.9409 24.6107 84.8454 24.697C84.7517 24.7815 84.6397 24.8523 84.5092 24.9092C84.3806 24.9643 84.2355 24.9919 84.0739 24.9919C83.8718 24.9919 83.6945 24.9524 83.542 24.8734C83.3914 24.7944 83.2738 24.6888 83.1893 24.5565C83.1066 24.4224 83.0653 24.2727 83.0653 24.1073C83.0653 23.9475 83.0965 23.807 83.159 23.6857C83.2214 23.5626 83.3114 23.4607 83.429 23.3799C83.5466 23.2972 83.688 23.2347 83.8533 23.1925C84.0187 23.1502 84.2033 23.1291 84.4072 23.1291H84.9997ZM87.4855 21.9552L87.4855 22.3465H85.8735L85.8735 21.9552H87.4855ZM86.4191 21.2305H86.9288L86.929 24.1983C86.929 24.2993 86.9446 24.3755 86.9758 24.427C87.007 24.4784 87.0475 24.5124 87.0971 24.5289C87.1467 24.5455 87.1999 24.5537 87.2569 24.5537C87.2991 24.5537 87.3432 24.5501 87.3891 24.5427C87.4369 24.5335 87.4727 24.5262 87.4966 24.5207L87.4994 24.9368C87.459 24.9496 87.4057 24.9616 87.3396 24.9726C87.2753 24.9854 87.1972 24.9919 87.1053 24.9919C86.9804 24.9919 86.8656 24.9671 86.7609 24.9175C86.6562 24.8679 86.5726 24.7852 86.5101 24.6695C86.4495 24.5519 86.4192 24.3939 86.4192 24.1955L86.4191 21.2305ZM89.3349 24.9919C89.1274 24.9919 88.9391 24.957 88.77 24.8872C88.6029 24.8155 88.4587 24.7154 88.3374 24.5868C88.218 24.4582 88.1261 24.3057 88.0618 24.1294C87.9975 23.953 87.9654 23.7601 87.9654 23.5507L87.9654 23.435C87.9653 23.1925 88.0012 22.9766 88.0728 22.7874C88.1444 22.5964 88.2418 22.4347 88.3649 22.3024C88.488 22.1702 88.6276 22.07 88.7837 22.0021C88.9399 21.9341 89.1015 21.9001 89.2687 21.9001C89.4818 21.9001 89.6655 21.9368 89.8198 22.0103C89.976 22.0838 90.1037 22.1867 90.2029 22.319C90.3021 22.4494 90.3756 22.6037 90.4233 22.7819C90.4711 22.9583 90.495 23.1511 90.495 23.3606L90.495 23.5893H88.2685L88.2685 23.1732H89.9852L89.9852 23.1346C89.9778 23.0023 89.9503 22.8737 89.9025 22.7488C89.8566 22.6239 89.7831 22.521 89.6821 22.4402C89.581 22.3594 89.4432 22.319 89.2687 22.319C89.153 22.319 89.0464 22.3438 88.9491 22.3934C88.8517 22.4411 88.7681 22.5128 88.6983 22.6083C88.6285 22.7038 88.5743 22.8205 88.5357 22.9583C88.4972 23.096 88.4779 23.2549 88.4779 23.435L88.4779 23.5507C88.4779 23.6922 88.4972 23.8253 88.5358 23.9503C88.5762 24.0733 88.6341 24.1817 88.7094 24.2754C88.7866 24.3691 88.8793 24.4426 88.9877 24.4959C89.0979 24.5491 89.2229 24.5758 89.3625 24.5758C89.5425 24.5758 89.695 24.539 89.8199 24.4656C89.9448 24.3921 90.0541 24.2938 90.1478 24.1707L90.4564 24.416C90.3922 24.5133 90.3104 24.6061 90.2112 24.6943C90.112 24.7825 89.9898 24.8541 89.8447 24.9092C89.7014 24.9643 89.5315 24.9919 89.3349 24.9919ZM91.0823 24.6667C91.0823 24.5804 91.1089 24.5078 91.1622 24.449C91.2173 24.3884 91.2963 24.3581 91.3992 24.3581C91.5021 24.3581 91.5801 24.3884 91.6334 24.449C91.6885 24.5078 91.7161 24.5804 91.7161 24.6667C91.7161 24.7512 91.6885 24.8229 91.6334 24.8817C91.5802 24.9404 91.5021 24.9698 91.3992 24.9698C91.2963 24.9698 91.2173 24.9404 91.1622 24.8817C91.1089 24.8229 91.0823 24.7512 91.0823 24.6667ZM91.085 22.2335C91.085 22.1472 91.1116 22.0746 91.1649 22.0158C91.22 21.9552 91.299 21.9249 91.4019 21.9249C91.5047 21.9249 91.5828 21.9552 91.6361 22.0158C91.6912 22.0746 91.7188 22.1472 91.7188 22.2335C91.7188 22.318 91.6912 22.3897 91.6361 22.4485C91.5828 22.5073 91.5048 22.5366 91.4019 22.5366C91.299 22.5366 91.22 22.5073 91.1649 22.4485C91.1116 22.3897 91.085 22.318 91.085 22.2335Z" fill="#919191"/>
<path d="M26.3009 40.2251L26.3009 41.2832H20.922L20.922 40.3739L23.5342 37.5246C23.8207 37.2013 24.0467 36.922 24.212 36.6869C24.3773 36.4517 24.4931 36.2405 24.5592 36.0531C24.629 35.862 24.6639 35.6765 24.6639 35.4965C24.6639 35.2429 24.6161 35.0207 24.5206 34.8296C24.4287 34.6349 24.2928 34.4824 24.1127 34.3722C23.9327 34.2583 23.7141 34.2013 23.4569 34.2013C23.1593 34.2013 22.9094 34.2656 22.7074 34.3942C22.5053 34.5228 22.3528 34.701 22.25 34.9288C22.1471 35.1529 22.0957 35.4101 22.0957 35.7004H20.7675C20.7675 35.2338 20.874 34.8076 21.0871 34.4218C21.3002 34.0323 21.6088 33.7237 22.0129 33.4959C22.4171 33.2644 22.9039 33.1487 23.4734 33.1487C24.0098 33.1487 24.4654 33.2387 24.8402 33.4187C25.2149 33.5988 25.4997 33.8541 25.6944 34.1848C25.8928 34.5155 25.9921 34.9068 25.9921 35.3587C25.9921 35.6085 25.9517 35.8565 25.8708 36.1027C25.79 36.3489 25.6743 36.595 25.5237 36.8412C25.3767 37.0837 25.2022 37.328 25.0001 37.5742C24.7981 37.8167 24.5758 38.0628 24.3333 38.3127L22.5973 40.2251H26.3009ZM27.695 40.6219C27.695 40.4161 27.7648 40.2434 27.9044 40.1038C28.044 39.9605 28.2332 39.8889 28.472 39.8889C28.7145 39.8889 28.9038 39.9605 29.0397 40.1038C29.1793 40.2434 29.2491 40.4161 29.2491 40.6219C29.2492 40.8276 29.1793 41.0003 29.0397 41.1399C28.9038 41.2795 28.7146 41.3493 28.4721 41.3493C28.2333 41.3493 28.0441 41.2795 27.9044 41.1399C27.7648 41.0003 27.695 40.8276 27.695 40.6219ZM34.5559 33.2314L34.5562 41.2832H33.228L33.2278 34.8076L31.2603 35.4744L31.2603 34.3777L34.3961 33.2314H34.5559ZM37.5153 35.2264L37.5153 34.802C37.5153 34.4971 37.5814 34.2197 37.7137 33.9699C37.8459 33.72 38.0388 33.5198 38.2923 33.3691C38.5458 33.2185 38.8508 33.1432 39.2072 33.1432C39.5746 33.1432 39.8832 33.2185 40.133 33.3691C40.3866 33.5198 40.5795 33.72 40.7117 33.9699C40.844 34.2197 40.9102 34.4971 40.9102 34.802L40.9102 35.2264C40.9102 35.524 40.8441 35.7977 40.7118 36.0476C40.5832 36.2974 40.3922 36.4977 40.1387 36.6483C39.8888 36.7989 39.582 36.8743 39.2183 36.8743C38.8582 36.8743 38.5496 36.7989 38.2924 36.6483C38.0389 36.4977 37.846 36.2974 37.7137 36.0476C37.5814 35.7977 37.5153 35.524 37.5153 35.2264ZM38.4356 34.802L38.4357 35.2264C38.4357 35.3734 38.4632 35.513 38.5183 35.6453C38.5771 35.7775 38.6653 35.8841 38.7829 35.9649C38.9005 36.0457 39.0456 36.0862 39.2183 36.0862C39.3946 36.0862 39.5379 36.0457 39.6481 35.9649C39.762 35.8841 39.8465 35.7775 39.9017 35.6453C39.9568 35.513 39.9843 35.3734 39.9843 35.2264L39.9843 34.802C39.9843 34.6514 39.9549 34.51 39.8961 34.3777C39.841 34.2417 39.7565 34.1334 39.6426 34.0525C39.5287 33.9717 39.3835 33.9313 39.2072 33.9313C39.0382 33.9313 38.8949 33.9717 38.7773 34.0525C38.6634 34.1334 38.5771 34.2417 38.5183 34.3777C38.4632 34.51 38.4356 34.6514 38.4356 34.802ZM41.3843 39.7456L41.3843 39.3157C41.3843 39.0144 41.4504 38.7389 41.5827 38.489C41.7186 38.2392 41.9133 38.039 42.1668 37.8883C42.4203 37.7377 42.7253 37.6624 43.0817 37.6624C43.4491 37.6624 43.7577 37.7377 44.0076 37.8883C44.2611 38.039 44.4521 38.2392 44.5807 38.489C44.713 38.7389 44.7792 39.0144 44.7792 39.3157L44.7792 39.7456C44.7792 40.0469 44.7131 40.3224 44.5808 40.5723C44.4522 40.8221 44.263 41.0223 44.0132 41.173C43.7634 41.3236 43.4584 41.3989 43.0983 41.3989C42.7346 41.3989 42.4241 41.3236 42.1669 41.173C41.9134 41.0223 41.7187 40.8221 41.5827 40.5723C41.4505 40.3224 41.3843 40.0469 41.3843 39.7456ZM42.3102 39.3157L42.3102 39.7456C42.3102 39.8925 42.3396 40.0322 42.3984 40.1644C42.4608 40.2967 42.5509 40.4051 42.6684 40.4896C42.786 40.5704 42.9275 40.6108 43.0928 40.6108C43.2802 40.6108 43.4308 40.5704 43.5447 40.4896C43.6586 40.4051 43.7394 40.2985 43.7872 40.1699C43.8386 40.0377 43.8643 39.8962 43.8643 39.7456L43.8643 39.3157C43.8643 39.1651 43.8349 39.0236 43.7761 38.8913C43.721 38.7591 43.6347 38.6525 43.5171 38.5717C43.4032 38.4909 43.2581 38.4505 43.0817 38.4505C42.909 38.4505 42.7657 38.4909 42.6518 38.5717C42.5379 38.6525 42.4516 38.7591 42.3928 38.8913C42.3377 39.0236 42.3102 39.1651 42.3102 39.3157ZM43.4122 34.4052L39.494 40.677L38.8161 40.2857L42.7343 34.0139L43.4122 34.4052Z" fill="#001E41"/>
<path d="M15.8406 82.1572L10.912 75.0823L10.9124 87.8565H163.692L163.692 80.1919L158.763 71.1518L153.835 82.1572L148.907 73.117L143.978 78.2267L139.05 67.2212L134.122 82.1572L129.193 75.0823L124.265 80.1919L119.336 69.1865L114.408 78.2267L109.48 73.117L104.552 82.1572L99.6228 71.1518L94.6947 80.1919L89.7654 55.4297L84.8379 78.2267L79.9089 61.3255L74.9812 82.1572L70.0526 75.0823L65.1236 58.5741L60.1958 75.0823L55.2671 64.4699L50.3388 69.1865L45.4108 80.1919L40.4823 75.0823L35.5541 82.1572L30.6252 67.2212L25.6972 78.2267L20.7685 69.1865L15.8406 82.1572Z" fill="url(#paint0_linear_1_233)"/>
<path d="M10.9111 75.3453L15.8417 82.4253L20.7717 69.4453L25.7025 78.4919L30.6325 67.4787L35.5635 82.4253L40.4937 75.3453L45.4243 80.4586L50.3544 69.4453L55.2846 64.7253L60.2154 75.3453L65.1453 58.8254L70.0763 75.3453L75.007 82.4253L79.9367 61.5787L84.8677 78.4919L89.7974 55.6787L94.7287 80.4586L99.6588 71.412L104.59 82.4253L109.52 73.3786L114.45 78.4919L119.38 69.4453L124.311 80.4586L129.242 75.3453L134.172 82.4253L139.102 67.4787L144.033 78.4919L148.963 73.3786L153.894 82.4253L158.824 71.412L163.755 80.4586" stroke="#98CB56" stroke-width="0.940576" stroke-linecap="round"/>
</g>
</g>
<defs>
<filter id="filter0_d_1_233" x="-1.56258" y="0.553783" width="177.726" height="102.269" filterUnits="userSpaceOnUse" color-interpolation-filters="sRGB">
<feFlood flood-opacity="0" result="BackgroundImageFix"/>
<feColorMatrix in="SourceAlpha" type="matrix" values="0 0 0 0 0 0 0 0 0 0 0 0 0 0 0 0 0 0 127 0" result="hardAlpha"/>
<feOffset dy="2.49437"/>
<feGaussianBlur stdDeviation="6.23592"/>
<feComposite in2="hardAlpha" operator="out"/>
<feColorMatrix type="matrix" values="0 0 0 0 0 0 0 0 0 0 0 0 0 0 0 0 0 0 0.08 0"/>
<feBlend mode="normal" in2="BackgroundImageFix" result="effect1_dropShadow_1_233"/>
<feBlend mode="normal" in="SourceGraphic" in2="effect1_dropShadow_1_233" result="shape"/>
</filter>
<linearGradient id="paint0_linear_1_233" x1="87.0866" y1="52.2768" x2="87.0866" y2="87.6297" gradientUnits="userSpaceOnUse">
<stop stop-color="#98CB56"/>
<stop offset="0.0001" stop-color="#98CB56" stop-opacity="0.46"/>
<stop offset="1" stop-color="#98CB56" stop-opacity="0.1"/>
</linearGradient>
<clipPath id="clip0_1_233">
<rect width="152.78" height="77.3254" rx="3.74155" transform="matrix(1 0 3.50292e-05 1 10.9093 10.5312)" fill="white"/>
</clipPath>
</defs>
</svg>
